<svg version="1.2" baseProfile="tiny-ps" xmlns="http://www.w3.org/2000/svg" viewBox="0 0 200 200" width="200" height="200">
	<title>resize_icon-svg</title>
	<style>
		tspan { white-space:pre }
		.shp0 { fill: #999999 } 
	</style>
	<g id="layer1">
		<path id="rect895-6-9-8-7" class="shp0" d="M130.57 33.56L130.57 64.3L161.3 64.3L161.3 33.56L130.57 33.56ZM79.61 84.39L79.61 115.12L110.34 115.12L110.34 84.39L79.61 84.39ZM130.57 84.39L130.57 115.12L161.3 115.12L161.3 84.39L130.57 84.39ZM28.65 134.81L28.65 165.54L59.39 165.54L59.39 134.81L28.65 134.81ZM79.61 134.81L79.61 165.54L110.34 165.54L110.34 134.81L79.61 134.81ZM130.57 134.81L130.57 165.54L161.3 165.54L161.3 134.81L130.57 134.81Z" />
	</g>
</svg>